<?xml version="1.0" encoding="UTF-8"?>
<svg id="Capa_2" data-name="Capa 2" xmlns="http://www.w3.org/2000/svg" viewBox="0 0 178.64 118.06">
  <defs>
    <style>
      .cls-1 {
        fill: #d8e4a6;
      }

      .cls-1, .cls-2, .cls-3, .cls-4, .cls-5 {
        stroke: #000;
        stroke-miterlimit: 10;
      }

      .cls-2 {
        fill: #9d9d9c;
      }

      .cls-3 {
        fill: #ededed;
      }

      .cls-4 {
        fill: #fff6c9;
      }

      .cls-5 {
        fill: #d8e4a5;
      }
    </style>
  </defs>
  <g id="Capa_1-2" data-name="Capa 1">
    <g>
      <g>
        <path class="cls-2" d="m117.14,87.87L162.33,1.02h15.49c-19.64,38.11-38.64,77.11-59.37,115.17"/>
        <path class="cls-4" d="m125.34,103.47s0-.08,0-.13l-7.13,13.49.07.14,7.06-13.51Z"/>
        <polygon class="cls-4" points=".89 116.98 117.89 117.44 118.2 116.84 64.02 13.15 .89 116.98"/>
        <polygon class="cls-3" points="118.05 116.98 125.36 103.42 71.19 1.02 64.02 13.15 89.93 62.95 90.04 62.95 118.05 116.98"/>
        <path class="cls-3" d="m118.21,117.4s.02-.02.03-.03l-28.32-54.42-56.07-.19,84.36,54.64Z"/>
        <rect class="cls-5" x="108.3" y="65.07" width="19.96" height="19.96" rx="9.98" ry="9.98"/>
      </g>
      <polyline class="cls-1" points="119.56 66.64 109.65 77.94 113.64 80.56 118.03 83.45 127.26 72.43"/>
      <line class="cls-4" x1="113.64" y1="80.56" x2="123.15" y2="69.53"/>
    </g>
  </g>
</svg>