<?xml version="1.0" encoding="UTF-8"?>
<svg id="Capa_2" data-name="Capa 2" xmlns="http://www.w3.org/2000/svg" viewBox="0 0 177.6 117.21">
  <defs>
    <style>
      .cls-1 {
        fill: #d8e4a5;
      }

      .cls-1, .cls-2, .cls-3, .cls-4 {
        stroke: #fff;
        stroke-miterlimit: 10;
        stroke-width: .5px;
      }

      .cls-2 {
        fill: #fff;
      }

      .cls-3 {
        fill: #fff6c9;
      }

      .cls-4 {
        fill: #ededed;
      }
    </style>
  </defs>
  <g id="Capa_1-2" data-name="Capa 1">
    <g>
      <path class="cls-3" d="m124.89,102.96s0-.08,0-.13l-7.13,13.49.07.14,7.06-13.51Z"/>
      <polygon class="cls-3" points=".44 116.47 117.44 116.92 117.76 116.33 63.57 12.64 .44 116.47"/>
      <polygon class="cls-4" points="117.61 116.47 124.92 102.91 70.75 .51 63.57 12.64 89.48 62.44 89.6 62.44 117.61 116.47"/>
      <path class="cls-4" d="m117.77,116.88s.02-.02.03-.03l-28.32-54.42-56.07-.19,84.36,54.64Z"/>
      <rect class="cls-1" x="107.86" y="64.56" width="19.96" height="19.96" rx="9.98" ry="9.98"/>
      <path class="cls-2" d="m118.01,115.69c20.73-38.07,39.73-77.07,59.37-115.17"/>
    </g>
  </g>
</svg>