<?xml version="1.0" encoding="UTF-8"?>
<svg id="Capa_2" data-name="Capa 2" xmlns="http://www.w3.org/2000/svg" viewBox="0 0 267.94 238.22">
  <defs>
    <style>
      .cls-1 {
        fill: #3c3c3b;
      }

      .cls-1, .cls-2, .cls-3, .cls-4, .cls-5, .cls-6, .cls-7, .cls-8, .cls-9, .cls-10 {
        stroke-miterlimit: 10;
      }

      .cls-1, .cls-3, .cls-7 {
        stroke-width: .25px;
      }

      .cls-1, .cls-5, .cls-7, .cls-10 {
        stroke: #1d1d1b;
      }

      .cls-2 {
        stroke: #62b22f;
        stroke-width: 5px;
      }

      .cls-2, .cls-6, .cls-11 {
        fill: #333;
      }

      .cls-3 {
        fill: #c6deab;
        stroke: #c6deab;
      }

      .cls-4 {
        fill: #0f150e;
      }

      .cls-4, .cls-8, .cls-9 {
        stroke: #f6f6f6;
      }

      .cls-5 {
        fill: #028eb4;
      }

      .cls-6 {
        stroke: #dadada;
      }

      .cls-7, .cls-8 {
        fill: #1d1d1b;
      }

      .cls-8 {
        stroke-width: 3px;
      }

      .cls-9 {
        fill: #0f1510;
      }

      .cls-10 {
        fill: #c5ddaa;
      }
    </style>
  </defs>
  <g id="Capa_1-2" data-name="Capa 1">
    <rect class="cls-2" x="2.5" y="2.5" width="262.94" height="233.22" rx="116.61" ry="116.61"/>
    <rect class="cls-8" x="47.42" y="37.19" width="170.53" height="170.53" rx="69.88" ry="69.88"/>
    <rect class="cls-11" x="86.08" y="77.74" width="93.23" height="170.53" rx="36.84" ry="36.84" transform="translate(-30.31 295.69) rotate(-90)"/>
    <rect class="cls-6" x="61.95" y="55.85" width="140.49" height="137.35" rx="64.41" ry="64.41"/>
    <rect class="cls-9" x="193.34" y="123.8" width="35.22" height="35.22" rx="7.24" ry="7.24"/>
    <rect class="cls-4" x="36.82" y="123.8" width="35.22" height="35.22" rx="7.24" ry="7.24"/>
    <rect class="cls-5" x="74.78" y="104.04" width="115.83" height="74.74" rx="4.11" ry="4.11"/>
    <rect class="cls-10" x="83" y="111.67" width="99.39" height="59.48"/>
    <rect class="cls-7" x="105.63" y="124.98" width="13.7" height="13.7" rx="6.85" ry="6.85"/>
    <rect class="cls-7" x="148.15" y="124.98" width="13.7" height="13.7" rx="6.85" ry="6.85"/>
    <path class="cls-10" d="m163.46,149.04c-.15.3-.38.75-.68,1.28,0,0-3.46,6.05-10.36,10.18-6.57,3.93-21.92,5.81-37.97,0l-1.97,2.62,3.68-6.51"/>
    <path class="cls-10" d="m161.26,142.78c-1.38,2.58-.71,5.78,1.52,7.54,2.11,1.67,5.15,1.69,7.35.02"/>
    <rect class="cls-3" x="137.19" y="138.67" width="10.96" height="10.96" rx="5.48" ry="5.48"/>
    <rect class="cls-1" x="129.27" y="105.29" width="5" height="5" rx="2.5" ry="2.5"/>
    <text/>
  </g>
</svg>